<svg width="372" height="258" viewBox="0 0 372 258" fill="none" xmlns="http://www.w3.org/2000/svg">
<path fill-rule="evenodd" clip-rule="evenodd" d="M352.69 142.42C341.95 133.78 324.5 122.69 306.3 123.42C291.68 124 284.2 131.5 276.29 139.44C268.17 147.59 259.77 156.02 244.41 156.02C229.05 156.02 220.21 147.17 211.51 138.62C202.91 130.15 194.78 122.16 180.24 122.16C165.7 122.16 159.5 129.57 151.9 138.14C144.47 146.52 136.06 156.03 120.03 156.03C101.62 156.03 91.35 146.51 82.29 138.11C76.18 132.45 70.9 127.55 63.8 125.87C46.55 121.77 32.38 132.51 32.23 132.62L25.81 124.41C26.54 123.84 43.96 110.44 66.2 115.73C75.97 118.05 82.78 124.37 89.37 130.47C97.77 138.26 105.7 145.61 120.02 145.61C131.35 145.61 136.97 139.27 144.09 131.23C152.18 122.09 161.35 111.74 180.23 111.74C199.11 111.74 209.54 122.08 218.81 131.2C226.67 138.93 233.45 145.61 244.4 145.61C255.35 145.61 261.37 139.65 268.89 132.1C277.45 123.51 287.16 113.77 305.87 113.03C321.17 112.43 335.56 118.51 346.93 125.55C350.17 124.02 353.21 122.22 356.01 120.12C366.43 112.34 371.58 102.4 371.58 90.3C371.58 84.55 370.62 79.52 368.7 75.21C366.79 70.9 363.91 67.42 360.08 64.67C356.25 61.92 352.41 59.76 348.58 58.08C344.75 56.4 339.96 54.73 334.21 53.17L305.35 45.14C300.56 43.46 298.17 40.95 298.17 37.72C298.17 35.44 299.49 33.65 302.12 32.21C304.75 30.77 307.87 30.05 311.46 30.05C320.92 30.05 328.47 34 334.1 41.79L368.47 31.97C364.4 22.15 357.33 14.37 347.15 8.62C336.97 2.87 325.23 0 311.82 0C297.57 0 285.35 3.70998 275.17 11.14C269.67 15.15 265.65 19.7 263.1 24.74C258.93 18.25 253.1 12.88 245.57 8.62C235.39 2.87 223.65 0 210.24 0C195.99 0 183.77 3.70998 173.59 11.14C165.14 17.31 160.17 24.71 158.72 33.29C155.98 27.86 152.43 22.87 148.07 18.33C136.33 6.10999 120.4 0.00997925 100.28 0.00997925C80.16 0.00997925 64.59 6.24 52.37 18.69C40.15 31.14 34.05 46.95 34.05 66.12C34.05 68.97 34.2 71.72 34.47 74.41H0V253.46H39.28V241.96C48.74 251.9 60.72 256.93 75.21 256.93C92.22 256.93 106.59 250.58 118.33 238.01C121.68 234.42 124.54 230.56 126.94 226.45C129.64 230.88 132.93 234.97 136.83 238.72C149.53 250.93 166.05 257.04 186.53 257.04L186.65 256.92C201.86 256.92 214.79 253.33 225.57 246.14C233.8 240.65 240 234.61 244.23 228.05L244.28 227.96C245.27 226.42 246.16 224.85 246.93 223.25C249.92 228.92 253.82 234.08 258.63 238.71C271.33 250.92 287.85 257.03 308.33 257.03L308.45 256.91C323.66 256.91 336.6 253.32 347.37 246.13C358.15 238.95 365.45 230.8 369.41 221.82L334.08 211.52C329.41 220.02 321.03 224.22 309.05 224.22C295.36 224.22 286.06 219.98 281.11 211.52H212.26C207.59 220.02 199.21 224.22 187.23 224.22C169.38 224.22 158.96 217.04 155.97 202.66H370.25C370.85 198.95 371.21 194.64 371.21 189.73C371.21 171.05 365.34 155.6 353.6 143.38C353.29 143.06 352.97 142.76 352.66 142.45M200.55 32.18C203.19 30.74 206.3 30.02 209.89 30.02C219.35 30.02 226.9 33.97 232.53 41.76H259.98C261.22 56.97 271.71 67.55 291.47 73.5L321.41 82.36C329.19 84.64 333.15 87.87 333.15 91.94C333.15 94.46 331.71 96.61 328.84 98.41C325.96 100.21 322.13 101.16 317.46 101.16C310.39 101.16 304.29 99.48 299.26 96.13C294.23 92.78 290.64 88.35 288.48 82.96H269.43C268.96 80.15 268.2 77.55 267.15 75.18C265.23 70.87 262.36 67.39 258.53 64.64C254.7 61.89 250.86 59.73 247.03 58.05C243.2 56.37 238.41 54.7 232.66 53.14L203.8 45.11C199.01 43.43 196.61 40.92 196.61 37.69C196.61 35.41 197.93 33.62 200.56 32.18M81.13 39.13C86.04 34.94 92.39 32.78 100.05 32.78C107.71 32.78 114.06 34.82 119.09 39.01C124.12 43.2 126.88 48.23 127.47 54.1H72.38C73.34 48.35 76.21 43.32 81.12 39.13M164.72 77.58C165.32 73.87 165.68 69.56 165.68 64.64C165.68 62.79 165.61 60.99 165.49 59.2C170.75 65.4 178.86 70.18 189.89 73.5L219.83 82.36C227.61 84.64 231.57 87.87 231.57 91.94C231.57 94.46 230.13 96.61 227.26 98.41C224.38 100.21 220.55 101.16 215.88 101.16C208.81 101.16 202.71 99.48 197.67 96.13C193.77 93.53 190.74 90.27 188.57 86.43H128.55C123.88 94.93 115.5 99.13 103.52 99.13C85.67 99.13 75.25 91.94 72.26 77.57H164.72V77.58ZM88.87 213.54C83.36 219.41 76.41 222.28 67.91 222.28L68.03 222.16C59.29 222.16 52.1 219.29 46.47 213.54C40.84 207.79 37.97 200.25 37.97 190.9C37.97 181.55 40.72 174.25 46.35 168.5C51.98 162.75 59.16 159.88 67.91 159.88C76.66 159.88 83.36 162.75 88.87 168.5C94.38 174.25 97.13 181.67 97.13 190.9C97.13 200.13 94.37 207.67 88.87 213.54ZM156.12 179.16C157.08 173.41 159.95 168.38 164.86 164.19C169.77 160 176.12 157.84 183.78 157.84C191.44 157.84 197.79 159.88 202.82 164.07C207.85 168.26 210.61 173.29 211.2 179.16H156.11H156.12ZM277.94 179.16C278.9 173.41 281.77 168.38 286.68 164.19C291.59 160 297.94 157.84 305.6 157.84C313.26 157.84 319.61 159.88 324.64 164.07C329.67 168.26 332.43 173.29 333.02 179.16H277.93H277.94Z" fill="#F23041"/>
</svg>
